<svg width="16" height="16" viewBox="0 0 16 16" fill="none" xmlns="http://www.w3.org/2000/svg">
<mask id="mask0_1038_21171" style="mask-type:alpha" maskUnits="userSpaceOnUse" x="0" y="0" width="16" height="16">
<rect width="16" height="16" fill="#D9D9D9"/>
</mask>
<g mask="url(#mask0_1038_21171)">
<path d="M11.332 10.0001C10.8654 10.0001 10.4709 9.83897 10.1487 9.51675C9.82648 9.19453 9.66536 8.80008 9.66536 8.33341C9.66536 7.86675 9.82648 7.4723 10.1487 7.15008C10.4709 6.82786 10.8654 6.66675 11.332 6.66675C11.7987 6.66675 12.1931 6.82786 12.5154 7.15008C12.8376 7.4723 12.9987 7.86675 12.9987 8.33341C12.9987 8.80008 12.8376 9.19453 12.5154 9.51675C12.1931 9.83897 11.7987 10.0001 11.332 10.0001ZM7.9987 13.3334V12.4001C7.9987 12.1334 8.06814 11.8862 8.20703 11.6584C8.34592 11.4306 8.54314 11.2667 8.7987 11.1667C9.1987 11.0001 9.61259 10.8751 10.0404 10.7917C10.4681 10.7084 10.8987 10.6667 11.332 10.6667C11.7654 10.6667 12.1959 10.7084 12.6237 10.7917C13.0515 10.8751 13.4654 11.0001 13.8654 11.1667C14.1209 11.2667 14.3181 11.4306 14.457 11.6584C14.5959 11.8862 14.6654 12.1334 14.6654 12.4001V13.3334H7.9987ZM6.66536 8.00008C5.93203 8.00008 5.30425 7.73897 4.78203 7.21675C4.25981 6.69453 3.9987 6.06675 3.9987 5.33341C3.9987 4.60008 4.25981 3.9723 4.78203 3.45008C5.30425 2.92786 5.93203 2.66675 6.66536 2.66675C7.3987 2.66675 8.02648 2.92786 8.5487 3.45008C9.07092 3.9723 9.33203 4.60008 9.33203 5.33341C9.33203 6.06675 9.07092 6.69453 8.5487 7.21675C8.02648 7.73897 7.3987 8.00008 6.66536 8.00008ZM1.33203 13.3334V11.3334C1.33203 11.0445 1.43203 10.7584 1.63203 10.4751C1.83203 10.1917 2.12648 9.94453 2.51536 9.73341C3.11536 9.41119 3.77092 9.15286 4.48203 8.95841C5.19314 8.76397 5.92092 8.66675 6.66536 8.66675C6.96536 8.66675 7.28481 8.68897 7.6237 8.73341C7.96259 8.77786 8.30981 8.84453 8.66536 8.93341V9.80008C8.50981 9.85564 8.37648 9.91119 8.26537 9.96675C8.15425 10.0223 8.03759 10.0834 7.91536 10.1501C7.71536 10.0945 7.50703 10.0556 7.29036 10.0334C7.0737 10.0112 6.86536 10.0001 6.66536 10.0001C6.02092 10.0001 5.39036 10.0779 4.7737 10.2334C4.15703 10.389 3.56536 10.6112 2.9987 10.9001C2.88759 10.9556 2.80425 11.0334 2.7487 11.1334C2.69314 11.2334 2.66536 11.3445 2.66536 11.4667V12.0001H6.66536V13.3334H1.33203ZM6.66536 6.66675C7.03203 6.66675 7.34592 6.53619 7.60703 6.27508C7.86814 6.01397 7.9987 5.70008 7.9987 5.33341C7.9987 4.96675 7.86814 4.65286 7.60703 4.39175C7.34592 4.13064 7.03203 4.00008 6.66536 4.00008C6.2987 4.00008 5.98481 4.13064 5.7237 4.39175C5.46259 4.65286 5.33203 4.96675 5.33203 5.33341C5.33203 5.70008 5.46259 6.01397 5.7237 6.27508C5.98481 6.53619 6.2987 6.66675 6.66536 6.66675Z" fill="#1C1B1F"/>
</g>
</svg>
