<svg width="16" height="16" viewBox="0 0 16 16" fill="none" xmlns="http://www.w3.org/2000/svg">
<mask id="mask0_1038_21123" style="mask-type:alpha" maskUnits="userSpaceOnUse" x="0" y="0" width="16" height="16">
<rect width="16" height="16" fill="#D9D9D9"/>
</mask>
<g mask="url(#mask0_1038_21123)">
<path d="M7.9987 14.6666C7.07648 14.6666 6.20981 14.4916 5.3987 14.1416C4.58759 13.7916 3.88203 13.3166 3.28203 12.7166C2.68203 12.1166 2.20703 11.411 1.85703 10.5999C1.50703 9.78881 1.33203 8.92214 1.33203 7.99992C1.33203 7.0777 1.50703 6.21103 1.85703 5.39992C2.20703 4.58881 2.68203 3.88325 3.28203 3.28325C3.88203 2.68325 4.58759 2.20825 5.3987 1.85825C6.20981 1.50825 7.07648 1.33325 7.9987 1.33325C8.92092 1.33325 9.78759 1.50825 10.5987 1.85825C11.4098 2.20825 12.1154 2.68325 12.7154 3.28325C13.3154 3.88325 13.7904 4.58881 14.1404 5.39992C14.4904 6.21103 14.6654 7.0777 14.6654 7.99992C14.6654 8.92214 14.4904 9.78881 14.1404 10.5999C13.7904 11.411 13.3154 12.1166 12.7154 12.7166C12.1154 13.3166 11.4098 13.7916 10.5987 14.1416C9.78759 14.4916 8.92092 14.6666 7.9987 14.6666ZM6.06536 12.9666L6.86536 11.1333C6.3987 10.9666 5.99592 10.7083 5.65703 10.3583C5.31814 10.0083 5.05425 9.59992 4.86536 9.13325L3.03203 9.89992C3.28759 10.611 3.68203 11.2333 4.21536 11.7666C4.7487 12.2999 5.36536 12.6999 6.06536 12.9666ZM4.86536 6.86659C5.05425 6.39992 5.31814 5.99159 5.65703 5.64159C5.99592 5.29159 6.3987 5.03325 6.86536 4.86659L6.0987 3.03325C5.38759 3.29992 4.76536 3.69992 4.23203 4.23325C3.6987 4.76659 3.2987 5.38881 3.03203 6.09992L4.86536 6.86659ZM7.9987 9.99992C8.55425 9.99992 9.02648 9.80547 9.41536 9.41659C9.80425 9.0277 9.9987 8.55547 9.9987 7.99992C9.9987 7.44436 9.80425 6.97214 9.41536 6.58325C9.02648 6.19436 8.55425 5.99992 7.9987 5.99992C7.44314 5.99992 6.97092 6.19436 6.58203 6.58325C6.19314 6.97214 5.9987 7.44436 5.9987 7.99992C5.9987 8.55547 6.19314 9.0277 6.58203 9.41659C6.97092 9.80547 7.44314 9.99992 7.9987 9.99992ZM9.93203 12.9666C10.632 12.6999 11.2459 12.3027 11.7737 11.7749C12.3015 11.2471 12.6987 10.6333 12.9654 9.93325L11.132 9.13325C10.9654 9.59992 10.7098 10.0027 10.3654 10.3416C10.0209 10.6805 9.62092 10.9444 9.16536 11.1333L9.93203 12.9666ZM11.132 6.83325L12.9654 6.06659C12.6987 5.36659 12.3015 4.7527 11.7737 4.22492C11.2459 3.69714 10.632 3.29992 9.93203 3.03325L9.16536 4.89992C9.62092 5.06659 10.0154 5.31936 10.3487 5.65825C10.682 5.99714 10.9431 6.38881 11.132 6.83325Z" fill="#1C1B1F"/>
</g>
</svg>
