<svg width="16" height="16" viewBox="0 0 16 16" fill="none" xmlns="http://www.w3.org/2000/svg">
<mask id="mask0_1038_21147" style="mask-type:alpha" maskUnits="userSpaceOnUse" x="0" y="0" width="16" height="16">
<rect width="16" height="16" fill="#D9D9D9"/>
</mask>
<g mask="url(#mask0_1038_21147)">
<path d="M0.667969 14V2H10.0013V14H6.0013V11.3333H4.66797V14H0.667969ZM2.0013 12.6667H3.33464V10H7.33464V12.6667H8.66797V3.33333H2.0013V12.6667ZM3.33464 8.66667H4.66797V7.33333H3.33464V8.66667ZM3.33464 6H4.66797V4.66667H3.33464V6ZM6.0013 8.66667H7.33464V7.33333H6.0013V8.66667ZM6.0013 6H7.33464V4.66667H6.0013V6ZM13.0013 10.3333L12.068 9.4L12.7846 8.66667H10.668V7.33333H12.7846L12.068 6.6L13.0013 5.66667L15.3346 8L13.0013 10.3333Z" fill="#1C1B1F"/>
</g>
</svg>
