<svg width="16" height="16" viewBox="0 0 16 16" fill="none" xmlns="http://www.w3.org/2000/svg">
<mask id="mask0_1038_21189" style="mask-type:alpha" maskUnits="userSpaceOnUse" x="0" y="0" width="16" height="16">
<rect width="16" height="16" fill="#D9D9D9"/>
</mask>
<g mask="url(#mask0_1038_21189)">
<path d="M1.33464 12.6667V11.3334H14.668V12.6667H1.33464ZM2.1013 8.63342L1.23464 8.13342L1.8013 7.13341H0.667969V6.13341H1.8013L1.23464 5.16675L2.1013 4.66675L2.66797 5.63341L3.23464 4.66675L4.1013 5.16675L3.53464 6.13341H4.66797V7.13341H3.53464L4.1013 8.13342L3.23464 8.63342L2.66797 7.63341L2.1013 8.63342ZM7.43464 8.63342L6.56797 8.13342L7.13463 7.13341H6.0013V6.13341H7.13463L6.56797 5.16675L7.43464 4.66675L8.0013 5.63341L8.56797 4.66675L9.43464 5.16675L8.86797 6.13341H10.0013V7.13341H8.86797L9.43464 8.13342L8.56797 8.63342L8.0013 7.63341L7.43464 8.63342ZM12.768 8.63342L11.9013 8.13342L12.468 7.13341H11.3346V6.13341H12.468L11.9013 5.16675L12.768 4.66675L13.3346 5.63341L13.9013 4.66675L14.768 5.16675L14.2013 6.13341H15.3346V7.13341H14.2013L14.768 8.13342L13.9013 8.63342L13.3346 7.63341L12.768 8.63342Z" fill="#1C1B1F"/>
</g>
</svg>
