<svg width="16" height="16" viewBox="0 0 16 16" fill="none" xmlns="http://www.w3.org/2000/svg">
<mask id="mask0_1038_21129" style="mask-type:alpha" maskUnits="userSpaceOnUse" x="0" y="0" width="16" height="16">
<rect width="16" height="16" fill="#D9D9D9"/>
</mask>
<g mask="url(#mask0_1038_21129)">
<path d="M11.3346 11.3333C11.6124 11.3333 11.8485 11.236 12.043 11.0416C12.2374 10.8471 12.3346 10.611 12.3346 10.3333C12.3346 10.0555 12.2374 9.81936 12.043 9.62492C11.8485 9.43047 11.6124 9.33325 11.3346 9.33325C11.0569 9.33325 10.8207 9.43047 10.6263 9.62492C10.4319 9.81936 10.3346 10.0555 10.3346 10.3333C10.3346 10.611 10.4319 10.8471 10.6263 11.0416C10.8207 11.236 11.0569 11.3333 11.3346 11.3333ZM11.3346 13.3333C11.6791 13.3333 11.9957 13.2527 12.2846 13.0916C12.5735 12.9305 12.8069 12.7166 12.9846 12.4499C12.7402 12.3055 12.4791 12.1944 12.2013 12.1166C11.9235 12.0388 11.6346 11.9999 11.3346 11.9999C11.0346 11.9999 10.7457 12.0388 10.468 12.1166C10.1902 12.1944 9.92908 12.3055 9.68464 12.4499C9.86241 12.7166 10.0957 12.9305 10.3846 13.0916C10.6735 13.2527 10.9902 13.3333 11.3346 13.3333ZM8.0013 14.6666C6.45686 14.2777 5.18186 13.3916 4.1763 12.0083C3.17075 10.6249 2.66797 9.08881 2.66797 7.39992V3.33325L8.0013 1.33325L13.3346 3.33325V7.11659C13.1235 7.0277 12.9069 6.94714 12.6846 6.87492C12.4624 6.8027 12.2346 6.74992 12.0013 6.71659V4.26659L8.0013 2.76659L4.0013 4.26659V7.39992C4.0013 7.92214 4.07075 8.44436 4.20964 8.96659C4.34852 9.48881 4.54297 9.98603 4.79297 10.4583C5.04297 10.9305 5.34575 11.3666 5.7013 11.7666C6.05686 12.1666 6.4513 12.4999 6.88464 12.7666C7.00686 13.1221 7.16797 13.461 7.36797 13.7833C7.56797 14.1055 7.79575 14.3944 8.0513 14.6499C8.04019 14.6499 8.03186 14.6527 8.0263 14.6583C8.02075 14.6638 8.01241 14.6666 8.0013 14.6666ZM11.3346 14.6666C10.4124 14.6666 9.6263 14.3416 8.9763 13.6916C8.3263 13.0416 8.0013 12.2555 8.0013 11.3333C8.0013 10.411 8.3263 9.62492 8.9763 8.97492C9.6263 8.32492 10.4124 7.99992 11.3346 7.99992C12.2569 7.99992 13.043 8.32492 13.693 8.97492C14.343 9.62492 14.668 10.411 14.668 11.3333C14.668 12.2555 14.343 13.0416 13.693 13.6916C13.043 14.3416 12.2569 14.6666 11.3346 14.6666Z" fill="#1C1B1F"/>
</g>
</svg>
