<svg width="16" height="16" viewBox="0 0 16 16" fill="none" xmlns="http://www.w3.org/2000/svg">
<mask id="mask0_1038_21141" style="mask-type:alpha" maskUnits="userSpaceOnUse" x="0" y="0" width="16" height="16">
<rect width="16" height="16" fill="#D9D9D9"/>
</mask>
<g mask="url(#mask0_1038_21141)">
<path d="M4.33203 11.3333C4.60981 11.3333 4.84592 11.2361 5.04036 11.0416C5.23481 10.8472 5.33203 10.6111 5.33203 10.3333C5.33203 10.0555 5.23481 9.8194 5.04036 9.62496C4.84592 9.43052 4.60981 9.33329 4.33203 9.33329C4.05425 9.33329 3.81814 9.43052 3.6237 9.62496C3.42925 9.8194 3.33203 10.0555 3.33203 10.3333C3.33203 10.6111 3.42925 10.8472 3.6237 11.0416C3.81814 11.2361 4.05425 11.3333 4.33203 11.3333ZM8.9987 11.3333C9.27648 11.3333 9.51259 11.2361 9.70703 11.0416C9.90148 10.8472 9.9987 10.6111 9.9987 10.3333C9.9987 10.0555 9.90148 9.8194 9.70703 9.62496C9.51259 9.43052 9.27648 9.33329 8.9987 9.33329C8.72092 9.33329 8.48481 9.43052 8.29036 9.62496C8.09592 9.8194 7.9987 10.0555 7.9987 10.3333C7.9987 10.6111 8.09592 10.8472 8.29036 11.0416C8.48481 11.2361 8.72092 11.3333 8.9987 11.3333ZM1.9987 14.6666V12.6333C1.7987 12.4111 1.63759 12.1638 1.51536 11.8916C1.39314 11.6194 1.33203 11.3222 1.33203 11V4.66663C1.33203 4.33329 1.39592 3.99718 1.5237 3.65829C1.65148 3.3194 1.93481 3.01663 2.3737 2.74996C2.81259 2.48329 3.45981 2.28051 4.31536 2.14163C5.17092 2.00274 6.32092 1.96663 7.76537 2.03329C7.67648 2.2444 7.60148 2.45829 7.54036 2.67496C7.47925 2.89163 7.43203 3.11107 7.3987 3.33329C6.15425 3.29996 5.17092 3.3444 4.4487 3.46663C3.72648 3.58885 3.23203 3.76663 2.96536 3.99996H7.33203C7.33203 4.22218 7.3487 4.4444 7.38203 4.66663C7.41536 4.88885 7.46536 5.11107 7.53203 5.33329H2.66536V7.33329H8.73203C9.15425 7.75552 9.64592 8.08329 10.207 8.31663C10.7681 8.54996 11.3654 8.66663 11.9987 8.66663V11C11.9987 11.3222 11.9376 11.6194 11.8154 11.8916C11.6931 12.1638 11.532 12.4111 11.332 12.6333V14.6666H9.33203V13.3333H3.9987V14.6666H1.9987ZM11.9987 7.33329C11.0765 7.33329 10.2904 7.00829 9.64037 6.35829C8.99037 5.70829 8.66536 4.92218 8.66536 3.99996C8.66536 3.07774 8.99037 2.29163 9.64037 1.64163C10.2904 0.991626 11.0765 0.666626 11.9987 0.666626C12.9209 0.666626 13.707 0.991626 14.357 1.64163C15.007 2.29163 15.332 3.07774 15.332 3.99996C15.332 4.92218 15.007 5.70829 14.357 6.35829C13.707 7.00829 12.9209 7.33329 11.9987 7.33329ZM11.6654 4.66663H12.332V1.99996H11.6654V4.66663ZM11.9987 5.99996C12.0876 5.99996 12.1654 5.96663 12.232 5.89996C12.2987 5.83329 12.332 5.75552 12.332 5.66663C12.332 5.57774 12.2987 5.49996 12.232 5.43329C12.1654 5.36663 12.0876 5.33329 11.9987 5.33329C11.9098 5.33329 11.832 5.36663 11.7654 5.43329C11.6987 5.49996 11.6654 5.57774 11.6654 5.66663C11.6654 5.75552 11.6987 5.83329 11.7654 5.89996C11.832 5.96663 11.9098 5.99996 11.9987 5.99996ZM3.9987 12H9.33203C9.6987 12 10.0126 11.8694 10.2737 11.6083C10.5348 11.3472 10.6654 11.0333 10.6654 10.6666V8.66663H2.66536V10.6666C2.66536 11.0333 2.79592 11.3472 3.05703 11.6083C3.31814 11.8694 3.63203 12 3.9987 12Z" fill="#1C1B1F"/>
</g>
</svg>
