<svg width="16" height="16" viewBox="0 0 16 16" fill="none" xmlns="http://www.w3.org/2000/svg">
<mask id="mask0_1038_21183" style="mask-type:alpha" maskUnits="userSpaceOnUse" x="0" y="0" width="16" height="16">
<rect width="16" height="16" fill="#D9D9D9"/>
</mask>
<g mask="url(#mask0_1038_21183)">
<path d="M6.66536 8.00008C5.93203 8.00008 5.30425 7.73897 4.78203 7.21675C4.25981 6.69453 3.9987 6.06675 3.9987 5.33341C3.9987 4.60008 4.25981 3.9723 4.78203 3.45008C5.30425 2.92786 5.93203 2.66675 6.66536 2.66675C7.3987 2.66675 8.02648 2.92786 8.5487 3.45008C9.07092 3.9723 9.33203 4.60008 9.33203 5.33341C9.33203 6.06675 9.07092 6.69453 8.5487 7.21675C8.02648 7.73897 7.3987 8.00008 6.66536 8.00008ZM1.33203 13.3334V11.4667C1.33203 11.1001 1.42648 10.7556 1.61536 10.4334C1.80425 10.1112 2.06536 9.86675 2.3987 9.70008C2.96536 9.41119 3.60425 9.16675 4.31536 8.96675C5.02648 8.76675 5.80981 8.66675 6.66536 8.66675H6.8987C6.96536 8.66675 7.03203 8.67786 7.0987 8.70008C7.00981 8.90008 6.93481 9.10842 6.8737 9.32508C6.81259 9.54175 6.76536 9.76675 6.73203 10.0001H6.66536C5.87648 10.0001 5.16814 10.1001 4.54036 10.3001C3.91259 10.5001 3.3987 10.7001 2.9987 10.9001C2.8987 10.9556 2.81814 11.0334 2.75703 11.1334C2.69592 11.2334 2.66536 11.3445 2.66536 11.4667V12.0001H6.86536C6.93203 12.2334 7.02092 12.464 7.13203 12.6917C7.24314 12.9195 7.36536 13.1334 7.4987 13.3334H1.33203ZM10.6654 14.0001L10.4654 13.0001C10.332 12.9445 10.207 12.8862 10.0904 12.8251C9.9737 12.764 9.85425 12.689 9.73203 12.6001L8.76536 12.9001L8.0987 11.7667L8.86536 11.1001C8.84314 10.9445 8.83203 10.8001 8.83203 10.6667C8.83203 10.5334 8.84314 10.389 8.86536 10.2334L8.0987 9.56675L8.76536 8.43342L9.73203 8.73342C9.85425 8.64453 9.9737 8.56953 10.0904 8.50841C10.207 8.4473 10.332 8.38897 10.4654 8.33341L10.6654 7.33341H11.9987L12.1987 8.33341C12.332 8.38897 12.457 8.45008 12.5737 8.51675C12.6904 8.58342 12.8098 8.66675 12.932 8.76675L13.8987 8.43342L14.5654 9.60008L13.7987 10.2667C13.8209 10.4001 13.832 10.539 13.832 10.6834C13.832 10.8279 13.8209 10.9667 13.7987 11.1001L14.5654 11.7667L13.8987 12.9001L12.932 12.6001C12.8098 12.689 12.6904 12.764 12.5737 12.8251C12.457 12.8862 12.332 12.9445 12.1987 13.0001L11.9987 14.0001H10.6654ZM11.332 12.0001C11.6987 12.0001 12.0126 11.8695 12.2737 11.6084C12.5348 11.3473 12.6654 11.0334 12.6654 10.6667C12.6654 10.3001 12.5348 9.98619 12.2737 9.72508C12.0126 9.46397 11.6987 9.33341 11.332 9.33341C10.9654 9.33341 10.6515 9.46397 10.3904 9.72508C10.1293 9.98619 9.9987 10.3001 9.9987 10.6667C9.9987 11.0334 10.1293 11.3473 10.3904 11.6084C10.6515 11.8695 10.9654 12.0001 11.332 12.0001ZM6.66536 6.66675C7.03203 6.66675 7.34592 6.53619 7.60703 6.27508C7.86814 6.01397 7.9987 5.70008 7.9987 5.33341C7.9987 4.96675 7.86814 4.65286 7.60703 4.39175C7.34592 4.13064 7.03203 4.00008 6.66536 4.00008C6.2987 4.00008 5.98481 4.13064 5.7237 4.39175C5.46259 4.65286 5.33203 4.96675 5.33203 5.33341C5.33203 5.70008 5.46259 6.01397 5.7237 6.27508C5.98481 6.53619 6.2987 6.66675 6.66536 6.66675Z" fill="#1C1B1F"/>
</g>
</svg>
