<svg width="16" height="16" viewBox="0 0 16 16" fill="none" xmlns="http://www.w3.org/2000/svg">
<mask id="mask0_1038_21135" style="mask-type:alpha" maskUnits="userSpaceOnUse" x="0" y="0" width="16" height="16">
<rect width="16" height="16" fill="#D9D9D9"/>
</mask>
<g mask="url(#mask0_1038_21135)">
<path d="M8.0013 7.99996C7.26797 7.99996 6.64019 7.73885 6.11797 7.21663C5.59575 6.6944 5.33464 6.06663 5.33464 5.33329C5.33464 4.59996 5.59575 3.97218 6.11797 3.44996C6.64019 2.92774 7.26797 2.66663 8.0013 2.66663C8.73464 2.66663 9.36241 2.92774 9.88463 3.44996C10.4069 3.97218 10.668 4.59996 10.668 5.33329C10.668 6.06663 10.4069 6.6944 9.88463 7.21663C9.36241 7.73885 8.73464 7.99996 8.0013 7.99996ZM2.66797 13.3333V11.4666C2.66797 11.0888 2.76519 10.7416 2.95964 10.425C3.15408 10.1083 3.41241 9.86663 3.73464 9.69996C4.42352 9.35551 5.12352 9.09718 5.83464 8.92496C6.54575 8.75274 7.26797 8.66663 8.0013 8.66663C8.73464 8.66663 9.45686 8.75274 10.168 8.92496C10.8791 9.09718 11.5791 9.35551 12.268 9.69996C12.5902 9.86663 12.8485 10.1083 13.043 10.425C13.2374 10.7416 13.3346 11.0888 13.3346 11.4666V13.3333H2.66797ZM4.0013 12H12.0013V11.4666C12.0013 11.3444 11.9707 11.2333 11.9096 11.1333C11.8485 11.0333 11.768 10.9555 11.668 10.9C11.068 10.6 10.4624 10.375 9.8513 10.225C9.24019 10.075 8.62352 9.99996 8.0013 9.99996C7.37908 9.99996 6.76241 10.075 6.1513 10.225C5.54019 10.375 4.93464 10.6 4.33464 10.9C4.23464 10.9555 4.15408 11.0333 4.09297 11.1333C4.03186 11.2333 4.0013 11.3444 4.0013 11.4666V12ZM8.0013 6.66663C8.36797 6.66663 8.68186 6.53607 8.94297 6.27496C9.20408 6.01385 9.33464 5.69996 9.33464 5.33329C9.33464 4.96663 9.20408 4.65274 8.94297 4.39163C8.68186 4.13051 8.36797 3.99996 8.0013 3.99996C7.63464 3.99996 7.32075 4.13051 7.05964 4.39163C6.79852 4.65274 6.66797 4.96663 6.66797 5.33329C6.66797 5.69996 6.79852 6.01385 7.05964 6.27496C7.32075 6.53607 7.63464 6.66663 8.0013 6.66663Z" fill="#1C1B1F"/>
</g>
</svg>
